<?xml version="1.0" standalone="no"?>
<!DOCTYPE svg PUBLIC "-//W3C//DTD SVG 20010904//EN"
 "http://www.w3.org/TR/2001/REC-SVG-20010904/DTD/svg10.dtd">
<svg version="1.0" xmlns="http://www.w3.org/2000/svg"
 width="512.000000pt" height="512.000000pt" viewBox="0 0 512.000000 512.000000"
 preserveAspectRatio="xMidYMid meet">

<g transform="translate(0.000000,512.000000) scale(0.100000,-0.100000)"
fill="#000000" stroke="none">
<path d="M2435 4660 c-718 -42 -1352 -441 -1713 -1078 -173 -306 -262 -654
-264 -1032 0 -196 15 -320 64 -514 206 -818 900 -1439 1747 -1563 157 -22 448
-23 596 0 811 125 1468 690 1709 1467 133 429 124 871 -26 1315 -43 128 -144
333 -225 455 -421 637 -1130 994 -1888 950z m-167 -195 c-3 -3 -9 2 -12 12 -6
14 -5 15 5 6 7 -7 10 -15 7 -18z m112 0 c0 -6 -7 -20 -15 -31 -14 -18 -15 -17
-9 10 5 21 4 27 -5 22 -6 -4 -11 -3 -11 3 0 5 9 9 20 8 11 -1 20 -6 20 -12z
m-140 -37 c0 -11 -27 -10 -34 1 -4 5 -3 17 1 27 6 16 7 16 20 -2 7 -10 13 -21
13 -26z m185 2 c-3 -5 -15 -15 -26 -21 -19 -10 -20 -9 -9 10 6 12 18 21 26 21
8 0 12 -4 9 -10z m-234 -30 c32 -26 5 -26 -28 0 -17 13 -21 20 -10 20 8 0 25
-9 38 -20z m279 15 c0 -2 -15 -12 -32 -20 l-33 -16 24 21 c22 19 41 26 41 15z
m-15 -55 c-3 -5 -1 -10 6 -10 7 0 10 -3 6 -6 -3 -3 -15 -3 -26 1 -23 7 -19 25
5 25 8 0 12 -4 9 -10z m-265 -10 c0 -5 -4 -10 -10 -10 -5 0 -10 5 -10 10 0 6
5 10 10 10 6 0 10 -4 10 -10z m911 -27 c-12 -20 -14 -14 -5 12 4 9 9 14 11 11
3 -2 0 -13 -6 -23z m-866 -3 c-3 -5 -25 -10 -48 -10 -31 0 -38 3 -27 10 20 13
83 13 75 0z m765 -21 c0 -5 -9 -4 -19 3 -11 7 -17 16 -14 20 5 10 33 -10 33
-23z m-537 14 c-13 -2 -33 -2 -45 0 -13 2 -3 4 22 4 25 0 35 -2 23 -4z m669
-15 c-7 -7 -12 -8 -12 -2 0 6 3 14 7 17 3 4 9 5 12 2 2 -3 -1 -11 -7 -17z
m-675 -4 c-3 -3 -12 -4 -19 -1 -8 3 -5 6 6 6 11 1 17 -2 13 -5z m493 -9 c33
-17 40 -28 13 -18 -23 8 -60 33 -50 33 5 0 21 -7 37 -15z m220 -5 c-24 -15
-37 -11 -16 5 11 8 22 12 25 9 3 -3 -1 -9 -9 -14z m-945 -20 c-10 -11 -25 -20
-34 -20 -12 1 -10 5 8 20 30 26 49 26 26 0z m205 10 c0 -5 -2 -10 -4 -10 -3 0
-8 5 -11 10 -3 6 -1 10 4 10 6 0 11 -4 11 -10z m13 -56 c-8 -21 -16 -17 -39
20 l-22 34 34 -20 c21 -12 31 -25 27 -34z m-173 6 c-9 -23 -16 -28 -25 -20
-10 8 -8 16 8 35 27 30 33 24 17 -15z m675 30 c3 -5 1 -10 -4 -10 -6 0 -11 5
-11 10 0 6 2 10 4 10 3 0 8 -4 11 -10z m235 -5 c0 -9 -6 -12 -15 -9 -8 4 -15
10 -15 15 0 5 7 9 15 9 8 0 15 -7 15 -15z m-820 -52 c0 -7 -7 -13 -15 -13 -11
0 -15 11 -15 38 l1 37 14 -25 c8 -14 14 -31 15 -37z m-641 -28 c0 -13 -5 -8
-14 15 -18 46 -17 74 0 35 8 -16 14 -39 14 -50z m666 35 c5 -18 4 -22 -4 -14
-6 6 -14 21 -16 34 -6 30 10 14 20 -20z m-625 -5 c0 -19 -2 -35 -4 -35 -2 0
-6 16 -8 35 -2 19 0 35 4 35 4 0 8 -16 8 -35z m57 3 c-3 -8 -6 -5 -6 6 -1 11
2 17 5 13 3 -3 4 -12 1 -19z m24 -39 c-25 -41 -27 -26 -4 27 11 26 18 33 20
23 2 -9 -5 -32 -16 -50z m1137 54 c-10 -2 -28 -2 -40 0 -13 2 -5 4 17 4 22 1
32 -1 23 -4z m210 -5 c-6 -18 -22 -20 -43 -3 -19 14 -18 14 13 15 22 0 32 -4
30 -12z m-1406 -23 c-2 -14 -6 -25 -8 -25 -2 0 -4 11 -4 25 0 14 4 25 9 25 4
0 6 -11 3 -25z m-113 -31 c17 -25 26 -42 19 -37 -7 4 -19 8 -27 10 -22 3 -36
22 -36 48 -1 36 10 31 44 -21z m365 14 c8 -13 8 -23 -1 -38 -16 -24 -9 -43 20
-55 38 -17 33 -41 -10 -49 -64 -10 -103 -7 -109 9 -4 10 -15 13 -33 10 -14 -3
0 7 31 22 32 15 58 31 58 36 0 13 -30 7 -70 -13 -22 -11 -40 -19 -40 -17 0 2
20 18 45 36 25 18 45 38 45 45 0 17 22 37 39 34 7 -2 19 -11 25 -20z m951 2
c-10 -11 -23 -20 -29 -20 -6 1 0 10 13 20 30 26 39 26 16 0z m175 -38 c0 -12
-6 -10 -26 9 l-27 24 7 -29 c6 -25 5 -28 -7 -17 -12 9 -16 9 -19 -1 -4 -10 -9
-9 -21 4 -18 18 -23 43 -7 33 6 -3 10 -2 10 3 0 6 9 8 20 5 11 -3 20 0 20 6 0
7 9 5 25 -5 14 -9 25 -23 25 -32z m-1244 27 c4 -7 -4 -20 -17 -30 -34 -27 -41
-23 -21 11 18 32 27 36 38 19z m541 -5 c7 -18 -17 -38 -31 -24 -11 11 -1 40
14 40 6 0 13 -7 17 -16z m303 -4 c0 -5 -2 -10 -4 -10 -3 0 -8 5 -11 10 -3 6
-1 10 4 10 6 0 11 -4 11 -10z m260 -2 c0 -7 -5 -20 -10 -28 -8 -13 -11 -13
-22 -1 -8 9 -8 11 -1 7 7 -3 14 2 18 14 7 22 15 27 15 8z m-660 -19 c0 -6 -4
-7 -10 -4 -5 3 -10 11 -10 16 0 6 5 7 10 4 6 -3 10 -11 10 -16z m534 -12 c-3
-9 -10 -17 -15 -17 -11 0 -12 34 -2 44 11 11 24 -9 17 -27z m-1298 2 c19 -11
32 -25 29 -30 -4 -5 1 -6 9 -3 9 4 16 1 16 -6 0 -16 -49 -4 -70 16 -8 8 -24
21 -35 29 -19 14 -19 14 -1 15 10 0 34 -9 52 -21z m1894 -14 c8 -10 10 -29 7
-53 -6 -32 -3 -39 16 -47 12 -6 23 -20 25 -32 3 -22 0 -23 -67 -23 -68 0 -71
1 -71 24 0 24 24 41 42 30 7 -5 8 8 4 40 -10 63 15 96 44 61z m-742 -40 c-11
-11 -37 7 -31 22 5 13 8 13 21 -1 9 -9 13 -18 10 -21z m602 25 c0 -5 -7 -10
-16 -10 -8 0 -12 5 -9 10 3 6 10 10 16 10 5 0 9 -4 9 -10z m-1180 -16 c0 -8
-5 -12 -10 -9 -6 4 -8 11 -5 16 9 14 15 11 15 -7z m830 -5 c0 -5 -7 -9 -15 -9
-15 0 -20 12 -9 23 8 8 24 -1 24 -14z m-1370 -28 c0 -4 -19 -8 -42 -9 -24 0
-37 1 -30 4 6 3 12 12 12 19 0 11 6 12 30 4 17 -6 30 -14 30 -18z m614 -14
c-8 -28 -11 -30 -22 -23 -7 4 -6 15 1 30 14 29 31 23 21 -7z m-414 -14 c0 -12
-2 -12 -15 1 -8 8 -15 20 -15 27 0 9 4 8 15 -1 8 -7 15 -19 15 -27z m890 1 c0
-8 -4 -14 -10 -14 -5 0 -10 9 -10 21 0 11 5 17 10 14 6 -3 10 -13 10 -21z
m-1050 -14 c-20 -13 -110 -13 -110 0 0 6 27 10 63 10 44 0 58 -3 47 -10z m324
-5 c4 -11 -1 -15 -17 -15 -21 -1 -22 -1 -3 -15 24 -18 19 -19 -23 -4 -24 9
-29 14 -19 20 8 6 -5 9 -37 10 -40 1 -45 3 -25 9 45 14 117 11 124 -5z m1206
5 c0 -5 -5 -10 -11 -10 -5 0 -7 5 -4 10 3 6 8 10 11 10 2 0 4 -4 4 -10z
m-1145 -19 c3 -5 1 -12 -4 -15 -5 -3 -11 1 -15 9 -6 16 9 21 19 6z m-225 -15
c0 -3 -4 -8 -10 -11 -5 -3 -10 -1 -10 4 0 6 5 11 10 11 6 0 10 -2 10 -4z
m1230 -6 c0 -5 -4 -10 -10 -10 -5 0 -10 5 -10 10 0 6 5 10 10 10 6 0 10 -4 10
-10z m-1404 -39 c-22 -22 -45 -37 -52 -34 -20 7 -19 10 28 43 57 42 69 37 24
-9z m876 27 c-9 -9 -15 -9 -24 0 -9 9 -7 12 12 12 19 0 21 -3 12 -12z m-585
-63 c1 -1 0 -11 -4 -23 -5 -22 -33 -31 -33 -11 0 5 -5 7 -12 3 -7 -5 -8 -3 -3
5 4 8 -5 28 -24 52 l-32 39 53 -32 c29 -18 54 -33 55 -33z m-17 55 c13 -8 13
-10 -2 -10 -9 0 -20 5 -23 10 -8 13 5 13 25 0z m859 -26 c58 -8 128 -22 155
-30 65 -19 76 -18 76 5 0 11 5 23 10 26 6 3 10 1 10 -5 0 -6 7 -10 16 -8 24 4
43 -30 24 -42 -11 -7 -3 -14 35 -30 95 -41 130 -60 210 -110 43 -27 88 -50 98
-50 10 0 16 -4 13 -9 -7 -11 99 -103 107 -94 4 3 10 -3 13 -13 12 -34 127
-144 151 -144 19 0 22 -5 21 -34 -1 -25 7 -42 33 -71 19 -20 35 -44 35 -53 1
-10 27 -70 58 -135 31 -64 56 -123 56 -130 0 -17 28 -106 40 -129 5 -9 12 -47
16 -84 5 -45 10 -61 14 -49 7 19 8 18 15 -5 5 -14 8 -36 6 -50 -1 -14 5 -39
13 -55 20 -38 20 -69 1 -85 -20 -16 -21 -74 -1 -67 10 4 8 -8 -8 -45 -21 -50
-21 -50 -27 -22 l-7 29 -1 -32 c0 -17 4 -35 10 -39 6 -3 9 -15 6 -25 -3 -11
-1 -19 4 -19 5 0 9 -8 9 -19 0 -21 -27 -48 -37 -37 -4 4 -1 11 6 15 9 6 10 11
2 15 -6 4 -17 -16 -27 -51 -28 -99 -51 -166 -78 -227 -28 -63 -32 -86 -15 -86
5 0 7 -5 4 -10 -3 -6 -14 -10 -25 -10 -11 0 -23 -13 -33 -37 -14 -35 -13 -39
2 -44 9 -4 22 -2 29 4 7 5 16 7 19 3 11 -11 -19 -26 -53 -26 -33 0 -67 -28
-62 -51 2 -7 -2 -13 -9 -14 -6 0 -22 -14 -34 -30 -13 -16 -16 -24 -8 -18 9 7
18 10 21 7 7 -6 -42 -84 -52 -84 -3 0 -24 -16 -46 -35 -21 -19 -42 -35 -46
-35 -4 0 -5 -7 -2 -15 4 -9 0 -15 -9 -15 -20 0 -68 -40 -62 -51 4 -5 -2 -6
-11 -2 -12 4 -15 3 -10 -5 4 -7 1 -12 -7 -12 -19 0 -29 -38 -16 -62 10 -18 12
-18 57 8 26 15 74 47 107 71 32 24 62 43 66 43 11 0 19 -44 10 -50 -5 -3 -12
-41 -16 -86 -8 -94 -13 -89 92 -99 45 -5 77 -3 91 4 15 8 22 8 25 -2 3 -6 6
-3 6 9 1 11 -4 25 -9 30 -15 15 -1 44 20 44 22 0 30 -19 18 -43 -7 -13 -4 -22
13 -36 30 -24 17 -41 -31 -41 -29 0 -48 -8 -72 -28 -92 -80 -323 -222 -359
-222 -9 0 -28 22 -43 50 -15 28 -29 50 -31 50 -2 0 -25 -11 -52 -24 -43 -22
-179 -69 -320 -111 -95 -28 -314 -43 -504 -34 -157 8 -296 35 -467 90 -68 23
-127 38 -130 34 -4 -3 8 -17 26 -31 18 -14 32 -34 32 -45 0 -17 -8 -19 -85
-19 -51 0 -85 4 -85 10 0 6 -10 14 -23 19 -106 41 -401 243 -380 261 5 4 50
13 101 20 105 15 101 9 81 125 -6 34 -9 74 -7 88 3 25 4 25 78 -30 41 -30 91
-63 111 -74 l36 -18 12 26 c11 24 9 29 -18 55 -16 15 -35 28 -40 28 -6 0 -11
4 -11 9 0 6 -18 21 -40 34 -22 13 -37 27 -33 31 4 4 -1 4 -12 0 -15 -6 -17 -4
-12 10 4 10 3 15 -3 11 -6 -3 -10 -13 -10 -21 0 -11 -10 -7 -35 13 -19 15 -35
34 -35 41 0 21 -40 73 -51 67 -5 -4 -9 -2 -9 3 0 5 -11 14 -25 20 -15 7 -23
17 -19 26 3 8 -8 35 -26 61 -18 26 -29 53 -26 63 3 9 1 24 -5 32 -9 12 -10 11
-6 -7 3 -13 1 -23 -3 -23 -11 0 -25 40 -21 58 1 8 -16 55 -38 105 -22 51 -43
104 -46 120 -8 31 -21 42 -30 27 -12 -19 -27 -10 -22 12 4 14 0 26 -11 34 -22
16 -7 32 17 17 16 -10 18 -9 14 7 -3 11 -8 18 -12 16 -3 -2 -6 6 -7 17 0 12
-6 66 -12 119 -7 54 -12 129 -12 168 0 54 -3 69 -13 64 -9 -6 -9 -4 1 7 6 7
12 27 12 44 0 73 32 232 69 343 73 218 170 373 340 543 112 111 224 196 333
250 45 23 61 39 38 39 -5 0 -10 7 -10 15 0 19 11 19 35 1 16 -12 29 -9 99 16
219 80 452 105 675 72z m-1079 -43 c-6 -24 -17 -41 -25 -41 -20 0 -19 5 7 51
27 48 33 44 18 -10z m119 -56 c1 -15 -1 -17 -8 -6 -5 7 -13 11 -19 7 -7 -4
-10 14 -10 51 l1 57 18 -44 c10 -25 18 -54 18 -65z m301 70 c0 -8 -7 -15 -15
-15 -9 0 -12 6 -9 15 4 8 10 15 15 15 5 0 9 -7 9 -15z m1240 0 c-7 -9 -15 -13
-17 -11 -7 7 7 26 19 26 6 0 6 -6 -2 -15z m-1697 -10 c-3 -9 -8 -14 -10 -11
-3 3 -2 9 2 15 9 16 15 13 8 -4z m94 -22 c-3 -10 -5 -4 -5 12 0 17 2 24 5 18
2 -7 2 -21 0 -30z m92 9 c12 -18 16 -33 11 -42 -6 -9 -12 -5 -24 18 -28 54
-20 69 13 24z m1580 -3 c-9 -17 -13 -19 -20 -8 -5 8 -3 16 4 21 22 14 28 8 16
-13z m71 -65 c0 -8 -4 -12 -10 -9 -5 3 -10 10 -10 16 0 5 5 9 10 9 6 0 10 -7
10 -16z m-2152 -22 c2 -13 -1 -29 -7 -36 -12 -14 -2 -27 32 -39 9 -4 17 -16
17 -27 0 -18 -6 -20 -70 -20 -38 0 -70 3 -70 6 0 15 22 44 34 44 17 0 29 27
16 35 -12 7 -13 48 -3 59 15 15 48 1 51 -22z m2177 -22 c3 -5 -3 -10 -14 -10
-11 0 -23 5 -26 10 -3 6 3 10 14 10 11 0 23 -4 26 -10z m-100 -20 c0 -7 -6
-15 -12 -17 -8 -3 -13 4 -13 17 0 13 5 20 13 18 6 -3 12 -11 12 -18z m-1625
-14 c0 -8 -5 -18 -10 -21 -17 -11 -40 3 -34 20 8 19 44 20 44 1z m2344 -22
c10 -27 7 -47 -11 -67 -13 -15 -15 -21 -5 -24 6 -3 9 -10 5 -16 -4 -7 1 -6 10
2 14 11 20 11 32 1 38 -32 1 -50 -88 -41 -32 3 -38 6 -35 25 2 13 11 22 25 24
23 3 38 28 23 37 -11 7 -13 58 -3 68 12 13 41 7 47 -9z m-207 -10 c-3 -3 -12
-4 -19 -1 -8 3 -5 6 6 6 11 1 17 -2 13 -5z m-246 -57 c-10 -9 -11 -8 -5 6 3
10 9 15 12 12 3 -3 0 -11 -7 -18z m-2306 3 c3 -5 -1 -10 -10 -10 -9 0 -13 5
-10 10 3 6 8 10 10 10 2 0 7 -4 10 -10z m-185 -45 c0 -5 -5 -3 -10 5 -5 8 -10
20 -10 25 0 6 5 3 10 -5 5 -8 10 -19 10 -25z m90 6 c0 -4 -6 -15 -13 -25 -13
-17 -14 -16 -14 12 0 21 4 29 14 25 7 -3 13 -8 13 -12z m180 15 c0 -3 -4 -8
-10 -11 -5 -3 -10 -1 -10 4 0 6 5 11 10 11 6 0 10 -2 10 -4z m2390 -6 c0 -5
-4 -10 -10 -10 -5 0 -10 5 -10 10 0 6 5 10 10 10 6 0 10 -4 10 -10z m-2620
-27 c0 -22 -2 -25 -10 -13 -13 20 -13 40 0 40 6 0 10 -12 10 -27z m-63 -29
c-8 -8 -37 21 -37 38 0 7 9 4 22 -9 12 -13 19 -25 15 -29z m135 4 c-7 -7 -12
-8 -12 -2 0 14 12 26 19 19 2 -3 -1 -11 -7 -17z m108 -26 c0 -13 -4 -20 -10
-17 -5 3 -10 21 -10 38 0 24 3 28 10 17 5 -8 10 -25 10 -38z m-298 18 c23 -14
27 -20 15 -20 -10 0 -27 9 -39 20 -28 26 -18 26 24 0z m248 12 c0 -5 -12 -14
-27 -21 l-28 -13 20 21 c21 21 35 26 35 13z m150 -8 c0 -10 -6 -13 -19 -9 -12
4 -21 0 -25 -11 -5 -14 -9 -15 -19 -5 -9 10 -8 15 7 27 26 19 56 18 56 -2z
m-155 -62 c-1 -2 -15 0 -30 4 l-28 7 24 13 c21 11 25 10 30 -4 4 -9 5 -18 4
-20z m-240 18 c3 -5 1 -10 -4 -10 -6 0 -11 5 -11 10 0 6 2 10 4 10 3 0 8 -4
11 -10z m2645 -10 c0 -12 -28 -25 -36 -17 -9 9 6 27 22 27 8 0 14 -5 14 -10z
m199 -81 c1 -20 -3 -25 -21 -24 -12 1 -24 8 -26 16 -3 8 -11 21 -19 30 -7 9
-11 24 -7 33 6 15 8 15 21 -4 21 -30 35 -25 29 13 l-6 32 14 -35 c8 -19 15
-47 15 -61z m71 71 c4 7 10 8 12 4 3 -5 -2 -21 -11 -36 l-17 -27 0 36 c0 20 2
30 4 23 3 -9 6 -10 12 0z m-2873 -14 c-10 -8 -29 -11 -45 -7 -27 5 -27 5 8 12
53 10 56 9 37 -5z m206 -2 c-7 -3 -10 -11 -7 -19 4 -9 0 -12 -13 -9 -10 2 -25
0 -33 -6 -13 -9 -11 -13 10 -30 18 -13 22 -22 14 -30 -7 -7 -17 -1 -34 21 -22
31 -22 33 -4 46 16 12 17 15 4 23 -11 7 -2 10 30 9 25 0 40 -3 33 -5z m55 -23
c3 -8 -1 -12 -9 -9 -7 2 -15 10 -17 17 -3 8 1 12 9 9 7 -2 15 -10 17 -17z
m2567 10 c3 -5 1 -12 -5 -16 -5 -3 -10 1 -10 9 0 18 6 21 15 7z m90 -17 c-23
-17 -32 -10 -15 11 7 8 17 12 23 8 6 -4 3 -11 -8 -19z m-2935 -19 c-13 -14
-26 -22 -29 -19 -3 3 5 14 18 25 33 27 39 24 11 -6z m2725 5 c28 -18 28 -20 8
-20 -13 0 -23 4 -23 8 0 5 -10 14 -22 20 -14 6 -17 11 -8 11 8 1 29 -8 45 -19z
m245 0 c-14 -11 -29 -20 -35 -20 -5 0 1 9 15 20 14 11 30 20 35 20 6 0 -1 -9
-15 -20z m-2829 -37 c11 -30 11 -33 -1 -33 -5 0 -10 6 -10 14 0 8 -4 17 -9 20
-4 3 -6 -6 -3 -19 3 -19 1 -24 -10 -20 -10 4 -14 15 -11 33 4 21 2 24 -6 12
-12 -16 -14 -10 -5 13 8 22 44 9 55 -20z m-91 15 c0 -23 -16 -39 -33 -32 -9 3
-14 10 -11 15 3 5 10 7 15 4 5 -4 12 1 15 9 7 19 14 21 14 4z m2674 -14 c23
-9 9 -24 -21 -24 -21 0 -24 2 -13 15 14 17 13 17 34 9z m253 -9 c0 -16 -7 -18
-31 -9 -20 8 -11 24 13 24 10 0 18 -7 18 -15z m-81 -10 c4 -10 20 -15 50 -15
44 0 53 -7 33 -27 -8 -8 -18 -7 -37 2 -15 7 -39 19 -54 26 -31 14 -37 29 -13
29 9 0 18 -7 21 -15z m342 -23 c2 -7 -2 -10 -12 -6 -9 3 -16 11 -16 16 0 13
23 5 28 -10z m-3308 -2 c0 -5 -4 -10 -10 -10 -5 0 -10 5 -10 10 0 6 5 10 10
10 6 0 10 -4 10 -10z m2849 6 c-10 -8 -89 -13 -89 -5 0 5 21 9 47 9 25 0 44
-2 42 -4z m-2574 -24 c0 -18 -20 -15 -23 4 -3 10 1 15 10 12 7 -3 13 -10 13
-16z m2569 -16 c-4 -11 -20 -22 -66 -44 -22 -10 -3 11 29 33 44 29 44 29 37
11z m189 -62 c-3 -8 -6 -14 -7 -14 -2 0 -17 18 -36 41 l-33 41 41 -27 c26 -17
39 -32 35 -41z m-3173 27 c0 -6 -4 -13 -10 -16 -5 -3 -10 1 -10 9 0 9 5 16 10
16 6 0 10 -4 10 -9z m3010 -32 c-11 -25 -15 -28 -22 -15 -5 9 -15 14 -21 10
-7 -3 1 6 17 21 34 32 43 26 26 -16z m104 1 c7 -24 6 -24 -8 -6 -9 11 -16 27
-16 35 0 21 16 2 24 -29z m-32 -22 c-9 -9 -12 -4 -11 23 0 32 1 33 11 11 8
-17 8 -26 0 -34z m-2907 2 c3 -5 1 -10 -4 -10 -6 0 -11 5 -11 10 0 6 2 10 4
10 3 0 8 -4 11 -10z m125 -56 c0 -8 -4 -12 -10 -9 -5 3 -10 10 -10 16 0 5 5 9
10 9 6 0 10 -7 10 -16z m-305 -14 c3 -6 -1 -7 -9 -4 -18 7 -21 14 -7 14 6 0
13 -4 16 -10z m-145 -21 c0 -5 -4 -9 -10 -9 -5 0 -10 7 -10 16 0 8 5 12 10 9
6 -3 10 -10 10 -16z m111 -39 c14 -8 19 -21 19 -50 0 -21 -4 -42 -10 -45 -5
-3 -10 -13 -10 -21 0 -10 12 -14 43 -14 25 0 37 -4 29 -8 -10 -7 -8 -14 7 -33
34 -44 15 -54 -98 -54 -55 0 -103 4 -107 8 -11 11 8 58 29 71 13 8 20 8 27 -3
14 -23 24 32 11 57 -15 27 -14 75 1 90 15 15 33 15 59 2z m378 -4 c9 -11 9
-16 0 -21 -10 -7 -28 10 -29 28 0 12 17 8 29 -7z m2851 -46 c0 -5 -4 -10 -10
-10 -5 0 -10 5 -10 10 0 6 5 10 10 10 6 0 10 -4 10 -10z m-162 -42 c-3 -7 -13
-15 -24 -17 -16 -3 -17 -1 -5 13 16 19 34 21 29 4z m347 -48 c3 -5 2 -10 -4
-10 -5 0 -13 5 -16 10 -3 6 -2 10 4 10 5 0 13 -4 16 -10z m-3095 -18 c0 -13
-12 -22 -22 -16 -10 6 -1 24 13 24 5 0 9 -4 9 -8z m3161 -2 c21 -12 27 -74 9
-85 -15 -10 -12 -25 8 -32 28 -10 52 -35 52 -53 0 -24 -61 -31 -167 -21 -23 2
-14 39 14 61 26 20 28 20 34 3 6 -14 8 -12 8 9 1 15 -3 30 -9 33 -14 9 -13 68
2 83 15 15 24 15 49 2z m-241 -20 c0 -5 -9 -10 -20 -10 -11 0 -20 5 -20 10 0
6 9 10 20 10 11 0 20 -4 20 -10z m-3012 -22 c7 -7 12 -18 12 -25 0 -10 -5 -10
-25 -1 -26 12 -34 38 -12 38 7 0 18 -5 25 -12z m-78 -108 c0 -5 -2 -10 -4 -10
-3 0 -8 5 -11 10 -3 6 -1 10 4 10 6 0 11 -4 11 -10z m65 -60 c3 -5 -1 -10 -9
-10 -9 0 -16 5 -16 10 0 6 4 10 9 10 6 0 13 -4 16 -10z m3070 -40 c3 -5 -1
-10 -10 -10 -9 0 -13 5 -10 10 3 6 8 10 10 10 2 0 7 -4 10 -10z m-3185 -4 c0
-3 -4 -8 -10 -11 -5 -3 -10 -1 -10 4 0 6 5 11 10 11 6 0 10 -2 10 -4z m3139
-23 c-10 -11 -14 -11 -20 -1 -10 17 -2 28 17 21 11 -4 12 -8 3 -20z m-3119
-99 c0 -8 -4 -12 -10 -9 -5 3 -10 13 -10 21 0 8 5 12 10 9 6 -3 10 -13 10 -21z
m97 -21 c-3 -3 -11 -2 -17 2 -8 5 -7 11 2 22 12 15 13 14 16 -1 2 -10 1 -20
-1 -23z m3423 28 c0 -5 -7 -14 -15 -21 -12 -10 -15 -10 -15 2 0 8 3 18 7 21 9
10 23 9 23 -2z m-3716 -57 c8 -22 -4 -40 -15 -23 -11 18 -11 39 0 39 5 0 12
-7 15 -16z m216 6 c0 -5 -2 -10 -4 -10 -3 0 -8 5 -11 10 -3 6 -1 10 4 10 6 0
11 -4 11 -10z m3175 -20 c-3 -5 -13 -10 -21 -10 -8 0 -14 5 -14 10 0 6 9 10
21 10 11 0 17 -4 14 -10z m-3135 -10 c0 -5 -5 -10 -11 -10 -5 0 -7 5 -4 10 3
6 8 10 11 10 2 0 4 -4 4 -10z m-420 -40 c0 -13 -7 -20 -20 -20 -13 0 -20 7
-20 20 0 13 7 20 20 20 13 0 20 -7 20 -20z m85 0 c3 -5 -1 -10 -9 -10 -9 0
-16 5 -16 10 0 6 4 10 9 10 6 0 13 -4 16 -10z m375 -16 c0 -8 -4 -14 -10 -14
-5 0 -10 9 -10 21 0 11 5 17 10 14 6 -3 10 -13 10 -21z m2920 16 c0 -5 -4 -10
-10 -10 -5 0 -10 5 -10 10 0 6 5 10 10 10 6 0 10 -4 10 -10z m-3080 -80 c6
-12 8 -30 5 -41 -5 -14 0 -27 14 -40 12 -11 21 -29 21 -39 0 -18 -7 -20 -65
-20 -48 0 -67 4 -71 14 -8 20 14 56 33 56 13 0 14 3 5 12 -17 17 -15 44 4 62
21 22 41 20 54 -4z m177 -24 c-4 -9 -11 -16 -17 -16 -17 0 -24 31 -9 41 18 11
34 -5 26 -25z m2983 1 c0 -12 -4 -28 -9 -36 -8 -12 -13 -11 -34 6 -18 14 -23
24 -16 34 7 11 13 9 29 -11 l19 -25 -5 34 c-4 22 -2 31 5 26 6 -3 11 -16 11
-28z m40 -4 c0 -27 -15 -23 -22 5 -3 11 0 19 8 19 8 0 14 -11 14 -24z m36 1
c-4 -9 -9 -15 -11 -12 -3 3 -3 13 1 22 4 9 9 15 11 12 3 -3 3 -13 -1 -22z
m-3146 -9 c0 -8 -7 -15 -15 -15 -8 0 -15 7 -15 15 0 8 7 15 15 15 8 0 15 -7
15 -15z m3179 -16 c-19 -12 -24 -2 -8 17 9 11 14 13 17 4 3 -7 -2 -16 -9 -21z
m337 20 c3 -6 0 -17 -7 -25 -18 -17 -44 -2 -36 20 7 18 33 21 43 5z m-251 -9
c-3 -5 -11 -10 -16 -10 -6 0 -7 5 -4 10 3 6 11 10 16 10 6 0 7 -4 4 -10z
m-259 -21 c19 -11 34 -23 34 -25 0 -11 -57 10 -75 27 -27 26 -2 25 41 -2z
m214 6 c-7 -8 -16 -15 -21 -15 -5 0 -6 7 -3 15 4 8 13 15 21 15 13 0 13 -3 3
-15z m-3220 -25 c0 -5 -4 -10 -10 -10 -5 0 -10 5 -10 10 0 6 5 10 10 10 6 0
10 -4 10 -10z m60 -5 c0 -8 -7 -15 -15 -15 -16 0 -20 12 -8 23 11 12 23 8 23
-8z m3164 -10 c3 -9 0 -15 -9 -15 -16 0 -27 14 -18 24 10 10 21 7 27 -9z
m-219 -4 c3 -5 -5 -12 -17 -14 -13 -2 -3 -5 22 -6 42 -2 43 -3 20 -13 -32 -14
-100 -19 -100 -7 0 5 7 9 16 9 10 0 14 6 11 14 -8 21 36 36 48 17z m223 -33
c-6 -18 -22 -20 -43 -3 -19 14 -18 14 13 15 22 0 32 -4 30 -12z m-192 -37
c-10 -10 -27 -21 -39 -24 -19 -5 -17 -2 8 18 36 29 55 33 31 6z m174 -38 c0
-19 -21 -16 -36 5 -20 26 -17 31 11 19 14 -7 25 -18 25 -24z m-3553 11 c3 -9
1 -25 -5 -34 -9 -15 -7 -21 10 -32 14 -9 19 -20 15 -31 -5 -14 -15 -16 -54
-10 -26 3 -49 7 -51 8 -8 6 12 35 25 35 11 0 13 7 8 30 -4 16 -4 34 0 40 10
16 45 12 52 -6z m3263 8 c0 -15 -22 -31 -36 -25 -18 7 -5 33 17 33 10 0 19 -4
19 -8z m169 -8 c19 12 12 -20 -8 -38 -17 -15 -20 -15 -34 -2 -8 8 -18 12 -22
8 -4 -4 -3 3 4 15 12 25 33 34 42 20 4 -5 12 -6 18 -3z m40 -21 c10 -19 9 -23
-4 -23 -10 0 -15 9 -15 27 0 29 2 29 19 -4z m-165 8 c3 -5 -1 -11 -9 -15 -9
-3 -15 0 -15 9 0 16 16 20 24 6z m196 -17 c0 -8 -4 -12 -10 -9 -5 3 -10 13
-10 21 0 8 5 12 10 9 6 -3 10 -13 10 -21z m-220 -85 c0 -5 -4 -9 -10 -9 -5 0
-10 7 -10 16 0 8 5 12 10 9 6 -3 10 -10 10 -16z m40 12 c0 -12 -20 -25 -27
-18 -7 7 6 27 18 27 5 0 9 -4 9 -9z m-92 -40 c10 -6 10 -10 -3 -21 -18 -15
-42 0 -31 19 8 13 16 14 34 2z m-2663 -12 c10 -15 -1 -23 -20 -15 -9 3 -13 10
-10 16 8 13 22 13 30 -1z m-245 -19 c0 -5 -5 -10 -11 -10 -5 0 -7 5 -4 10 3 6
8 10 11 10 2 0 4 -4 4 -10z m3141 -23 c-1 -12 -15 -9 -19 4 -3 6 1 10 8 8 6
-3 11 -8 11 -12z m-151 -27 c0 -5 -4 -10 -9 -10 -6 0 -13 5 -16 10 -3 6 1 10
9 10 9 0 16 -4 16 -10z m200 -20 c27 -14 34 -62 16 -99 -12 -22 -14 -39 -7
-68 6 -24 9 -30 10 -15 1 12 7 22 15 22 21 0 56 -48 56 -76 0 -24 0 -24 -121
-24 l-121 0 6 33 c3 17 16 40 27 50 22 17 50 23 48 10 -5 -32 5 -29 11 2 6 32
4 45 -12 64 -13 18 -17 33 -12 55 10 49 44 68 84 46z m-3350 -40 c0 -5 -4 -10
-10 -10 -5 0 -10 5 -10 10 0 6 5 10 10 10 6 0 10 -4 10 -10z m400 -67 c-19
-34 -20 -35 -17 -10 2 15 0 27 -4 27 -5 0 -9 -7 -9 -16 0 -19 -24 -13 -28 7
-2 10 7 15 25 17 15 1 32 7 37 12 19 19 17 1 -4 -37z m-72 6 c-3 -8 -7 -3 -11
10 -4 17 -3 21 5 13 5 -5 8 -16 6 -23z m-144 -11 c14 -22 -12 -52 -37 -42 -17
6 -23 44 -10 58 11 11 35 3 47 -16z m120 -3 c18 -28 11 -32 -18 -10 -10 7 -15
18 -11 24 9 15 11 14 29 -14z m171 -7 c6 -6 5 -12 -3 -17 -11 -7 -11 -11 1
-23 16 -15 12 -68 -5 -68 -5 0 -20 7 -33 16 -20 13 -23 20 -14 35 5 10 7 19 3
19 -3 0 -1 7 6 15 15 18 -1 20 -18 3 -16 -16 -15 -3 0 22 13 20 41 19 63 -2z
m-210 -10 c14 -6 25 -15 25 -19 0 -11 -38 1 -51 17 -14 17 -8 18 26 2z m2770
-28 c-5 -8 -11 -8 -17 -2 -6 6 -7 16 -3 22 5 8 11 8 17 2 6 -6 7 -16 3 -22z
m113 11 c3 -8 -1 -12 -9 -9 -7 2 -15 10 -17 17 -3 8 1 12 9 9 7 -2 15 -10 17
-17z m-3148 -26 c0 -16 -35 -21 -44 -6 -8 12 4 21 26 21 10 0 18 -7 18 -15z
m275 5 c3 -5 -3 -10 -15 -10 -12 0 -18 5 -15 10 3 6 10 10 15 10 5 0 12 -4 15
-10z m2795 -5 c10 -12 10 -15 -4 -15 -9 0 -16 7 -16 15 0 8 2 15 4 15 2 0 9
-7 16 -15z m-90 -5 c0 -5 -7 -10 -15 -10 -8 0 -15 5 -15 10 0 6 7 10 15 10 8
0 15 -4 15 -10z m-2680 -17 c-14 -3 -30 -9 -36 -14 -6 -5 -14 -6 -17 -2 -16
16 -4 23 36 22 27 -1 33 -3 17 -6z m-10 -48 c-7 -8 -16 -15 -21 -15 -5 0 -6 7
-3 15 4 8 13 15 21 15 13 0 13 -3 3 -15z m147 0 c-1 -5 6 -9 15 -9 10 1 14 -4
11 -12 -8 -21 -29 -17 -47 10 -15 23 -14 25 3 23 11 -1 19 -6 18 -12z m-95
-19 c6 4 14 0 19 -7 6 -10 9 -7 9 11 0 20 2 22 10 10 5 -8 10 -10 10 -5 1 11
30 -25 30 -37 0 -4 -13 -6 -30 -4 -16 2 -30 -1 -30 -6 0 -11 -44 1 -48 13 -2
5 -7 7 -12 4 -4 -3 -6 4 -3 15 3 11 9 17 14 14 5 -3 10 1 10 8 1 7 3 5 6 -5 2
-9 9 -14 15 -11z m2748 20 c0 -11 -19 -15 -25 -6 -3 5 1 10 9 10 9 0 16 -2 16
-4z m-13 -123 c2 -6 -3 -13 -12 -16 -10 -5 -15 0 -15 14 0 21 21 22 27 2z
m-188 -28 c3 -17 1 -18 -13 -6 -13 11 -19 11 -31 1 -12 -10 -15 -9 -15 4 0 10
5 14 10 11 6 -3 10 -1 10 5 0 19 35 6 39 -15z m-2693 -21 c4 -14 1 -31 -6 -39
-14 -17 -11 -23 22 -39 13 -6 24 -22 26 -34 3 -21 0 -22 -73 -22 -73 0 -76 1
-73 22 2 12 14 28 28 35 27 14 28 15 15 57 -6 23 -4 32 9 42 23 17 45 8 52
-22z m334 -4 c0 -12 -28 -25 -36 -17 -9 9 6 27 22 27 8 0 14 -5 14 -10z m2350
-25 c0 -8 -7 -15 -15 -15 -8 0 -15 7 -15 15 0 8 7 15 15 15 8 0 15 -7 15 -15z
m-2340 -45 c0 -5 -4 -10 -10 -10 -5 0 -10 5 -10 10 0 6 5 10 10 10 6 0 10 -4
10 -10z m77 4 c-3 -3 -12 -4 -19 -1 -8 3 -5 6 6 6 11 1 17 -2 13 -5z m23 -53
c0 -12 -20 -25 -27 -18 -7 7 6 27 18 27 5 0 9 -4 9 -9z m2710 -71 c0 -5 -7
-10 -16 -10 -8 0 -12 5 -9 10 3 6 10 10 16 10 5 0 9 -4 9 -10z m-253 -16 c-3
-3 -12 -4 -19 -1 -8 3 -5 6 6 6 11 1 17 -2 13 -5z m-2559 -111 c5 -17 -26 -29
-40 -15 -6 6 -7 15 -3 22 9 14 37 9 43 -7z m2437 -13 c3 -5 -1 -10 -9 -10 -9
0 -16 5 -16 10 0 6 4 10 9 10 6 0 13 -4 16 -10z m-475 -150 c0 -5 -4 -10 -10
-10 -5 0 -10 5 -10 10 0 6 5 10 10 10 6 0 10 -4 10 -10z m-86 -55 c3 -8 1 -15
-4 -15 -6 0 -10 7 -10 15 0 8 2 15 4 15 2 0 6 -7 10 -15z m-84 -23 c0 -13 -12
-22 -22 -16 -10 6 -1 24 13 24 5 0 9 -4 9 -8z m-1170 -78 c0 -21 -17 -25 -22
-6 -3 11 0 19 8 19 8 0 14 -6 14 -13z m1074 0 c9 -24 7 -28 -9 -14 -17 14 -20
30 -6 30 5 0 12 -7 15 -16z m-1186 -29 c-11 -11 -37 7 -31 22 5 13 8 13 21 -1
9 -9 13 -18 10 -21z m59 13 c-3 -8 -6 -5 -6 6 -1 11 2 17 5 13 3 -3 4 -12 1
-19z m946 -10 c6 -22 5 -22 -8 -4 -17 22 -20 40 -6 32 5 -3 11 -16 14 -28z
m-713 12 c0 -5 -4 -10 -10 -10 -5 0 -10 5 -10 10 0 6 5 10 10 10 6 0 10 -4 10
-10z m760 -6 c0 -2 -7 -4 -15 -4 -8 0 -15 4 -15 10 0 5 7 7 15 4 8 -4 15 -8
15 -10z m70 -17 c0 -5 -4 -6 -9 -2 -6 3 -14 -3 -20 -12 -14 -23 -14 -12 0 24
8 22 12 24 19 13 6 -8 10 -19 10 -23z m125 23 c3 -5 1 -10 -4 -10 -6 0 -11 5
-11 10 0 6 2 10 4 10 3 0 8 -4 11 -10z m-1105 -15 c-7 -9 -15 -13 -17 -11 -7
7 7 26 19 26 6 0 6 -6 -2 -15z m95 -4 c-3 -6 -11 -11 -17 -11 -6 0 -6 6 2 15
14 17 26 13 15 -4z m-264 -29 c-14 -5 -51 17 -51 29 0 6 14 2 30 -8 17 -10 26
-19 21 -21z m997 13 c13 -28 10 -30 -18 -15 -11 6 -17 17 -14 25 9 22 19 18
32 -10z m-802 0 c-11 -8 -23 -15 -27 -15 -4 0 -9 -10 -11 -22 -4 -28 -28 -36
-28 -10 0 12 13 28 33 40 37 24 61 28 33 7z m138 0 c3 -8 1 -15 -4 -15 -6 0
-10 7 -10 15 0 8 2 15 4 15 2 0 6 -7 10 -15z m846 -2 c0 -10 -32 -43 -42 -43
-5 0 -1 11 8 25 15 23 34 33 34 18z m-219 -39 c29 -22 30 -25 9 -19 -25 8 -70
34 -70 41 0 12 31 1 61 -22z m259 11 c-6 -8 -20 -17 -31 -20 -24 -8 -15 -25
10 -18 11 3 21 -2 25 -12 5 -14 1 -16 -27 -10 -43 10 -52 27 -22 43 14 7 25
17 25 22 0 6 7 10 16 10 13 0 14 -3 4 -15z m-1010 1 c0 -9 -30 -14 -35 -6 -4
6 3 10 14 10 12 0 21 -2 21 -4z m822 -21 c0 -5 -5 -11 -11 -13 -6 -2 -11 4
-11 13 0 9 5 15 11 13 6 -2 11 -8 11 -13z m-1007 -15 c-3 -5 -22 -10 -41 -10
-21 0 -33 4 -29 10 3 6 22 10 41 10 21 0 33 -4 29 -10z m189 1 c11 -17 -18
-30 -37 -16 -18 13 -18 13 0 18 29 8 32 7 37 -2z m410 3 c21 -8 21 -43 0 -51
-8 -3 -23 1 -31 10 -13 13 -14 19 -3 31 14 18 13 18 34 10z m326 -25 c0 -5 -9
-9 -20 -9 -17 0 -19 2 -8 14 13 14 28 12 28 -5z m170 -9 c0 -5 -7 -10 -16 -10
-8 0 -12 5 -9 10 3 6 10 10 16 10 5 0 9 -4 9 -10z m-1106 -14 c-6 -15 -34 -31
-34 -19 0 5 30 32 37 33 1 0 0 -6 -3 -14z m176 -33 c0 -20 -13 -15 -33 12
l-18 25 26 -12 c14 -6 25 -17 25 -25z m793 20 c-13 -2 -35 -2 -50 0 -16 2 -5
4 22 4 28 0 40 -2 28 -4z m247 -3 c0 -15 -31 -25 -39 -13 -3 6 -13 13 -21 16
-8 3 2 6 23 6 20 1 37 -4 37 -9z m-1184 -26 c-4 -9 -9 -15 -11 -12 -3 3 -3 13
1 22 4 9 9 15 11 12 3 -3 3 -13 -1 -22z m74 -11 c0 -7 -4 -13 -10 -13 -5 0
-10 12 -10 28 0 21 2 24 10 12 5 -8 10 -21 10 -27z m24 12 c3 -8 1 -15 -3 -15
-5 0 -11 7 -15 15 -3 8 -1 15 3 15 5 0 11 -7 15 -15z m490 -11 c3 -8 2 -12 -4
-9 -6 3 -10 10 -10 16 0 14 7 11 14 -7z m351 -14 c-10 -11 -23 -20 -28 -20 -6
0 -2 9 8 20 10 11 23 20 28 20 6 0 2 -9 -8 -20z m215 -43 c0 -26 -17 -17 -42
21 l-20 32 31 -17 c17 -10 31 -26 31 -36z m-167 13 c-6 -22 -21 -35 -30 -26
-5 5 24 46 33 46 1 0 0 -9 -3 -20z m77 -22 c0 -9 -4 -20 -10 -23 -6 -4 -10 9
-10 32 0 28 3 34 10 23 5 -8 10 -23 10 -32z m40 -22 c0 -6 -7 -2 -15 8 -8 11
-15 25 -15 30 0 6 7 2 15 -8 8 -11 15 -25 15 -30z m-565 -26 c-3 -5 -13 -10
-21 -10 -8 0 -12 5 -9 10 3 6 13 10 21 10 8 0 12 -4 9 -10z"/>
<path d="M1640 4156 c0 -2 8 -10 18 -17 15 -13 16 -12 3 4 -13 16 -21 21 -21
13z"/>
<path d="M2455 3854 c-298 -33 -583 -173 -801 -395 -78 -80 -87 -92 -76 -110
12 -19 7 -24 -25 -20 -7 1 -37 -35 -67 -81 -92 -141 -145 -273 -183 -453 -53
-255 -12 -559 108 -805 24 -50 34 -59 58 -55 9 1 21 -5 28 -14 6 -9 16 -17 22
-17 6 -1 17 -2 25 -3 20 -1 55 -80 51 -113 -2 -16 1 -30 6 -34 5 -3 9 -16 9
-29 0 -17 9 -29 30 -40 18 -9 30 -23 30 -35 0 -31 166 -174 217 -186 13 -4 23
-10 23 -14 0 -11 86 -50 110 -50 11 0 20 -4 20 -10 0 -5 5 -10 12 -10 6 0 35
-11 65 -26 68 -32 188 -62 232 -58 20 1 29 -1 22 -6 -9 -5 2 -9 29 -12 23 -2
44 0 46 4 3 4 13 8 22 8 15 0 15 -2 2 -11 -11 -7 1 -8 40 -3 30 3 57 10 61 15
3 5 19 5 36 0 22 -7 33 -6 37 2 3 8 5 7 5 -2 1 -9 5 -10 14 -4 21 16 69 34 62
23 -7 -11 -5 -11 35 -15 14 -1 34 -6 45 -10 11 -5 17 -4 12 0 -10 11 47 35 83
35 15 0 39 9 54 21 15 11 33 18 42 15 8 -3 12 -2 9 4 -5 9 15 15 37 11 4 0 25
6 46 14 31 13 38 21 40 45 2 28 1 29 -35 26 -21 -2 -51 -9 -68 -16 -16 -6 -86
-25 -155 -42 -109 -26 -144 -30 -275 -30 -196 -1 -322 26 -504 109 -164 74
-355 232 -466 383 -53 72 -128 216 -157 300 -102 295 -84 612 51 896 63 132
116 209 215 312 101 106 185 169 306 231 130 67 224 99 358 122 137 23 256 24
377 3 401 -69 722 -309 895 -669 62 -130 86 -212 106 -365 14 -105 15 -143 5
-236 -31 -306 -163 -576 -381 -777 -33 -31 -60 -64 -60 -74 0 -11 -5 -24 -12
-31 -9 -9 -9 -12 0 -12 7 0 12 5 12 10 0 6 5 10 11 10 5 0 7 -5 3 -12 -5 -7
-2 -9 9 -5 9 3 17 1 20 -6 4 -12 67 47 67 63 0 6 5 10 12 10 7 0 25 12 41 28
17 15 26 21 22 13 -5 -9 -4 -12 3 -7 7 4 12 11 12 17 0 15 73 79 83 72 6 -3 7
-1 3 6 -9 13 18 43 29 33 5 -4 3 1 -2 12 -8 14 -6 23 8 37 11 11 23 19 28 19
5 0 15 16 22 35 7 19 18 35 25 35 28 0 134 276 148 387 24 190 26 234 16 348
-6 66 -15 139 -20 161 -36 162 -128 363 -227 495 -72 97 -228 247 -318 308
-142 95 -356 183 -510 211 -66 12 -307 21 -370 14z"/>
<path d="M2515 3704 c-131 -18 -191 -29 -260 -51 -385 -120 -686 -435 -785
-821 -177 -690 336 -1387 1050 -1428 167 -10 378 22 388 58 2 10 8 18 14 18 5
0 22 13 38 30 29 30 29 30 41 9 7 -14 7 -19 0 -15 -5 4 -19 -2 -31 -14 -23
-23 -9 -27 35 -10 20 8 25 15 20 29 -3 11 -2 28 4 38 5 10 12 26 15 35 3 11
12 15 25 11 12 -3 32 2 46 11 13 9 33 16 45 16 11 0 20 6 20 13 0 7 9 18 20
25 12 7 18 18 14 24 -4 6 -1 9 7 6 7 -2 17 -19 21 -36 5 -18 12 -32 17 -32 21
0 132 93 192 161 296 332 380 758 230 1167 -135 371 -479 662 -870 736 -82 16
-247 27 -296 20z m276 -893 c1 -89 -1 -165 -5 -168 -3 -4 -6 6 -6 20 0 27 -13
36 -25 17 -3 -5 -1 -10 4 -10 6 0 11 -4 11 -10 0 -5 -6 -10 -14 -10 -7 0 -19
-7 -26 -15 -14 -17 -40 -20 -40 -6 0 5 9 12 20 16 24 7 60 65 60 95 0 29 -30
79 -52 86 -10 3 -16 10 -13 15 4 5 -3 9 -14 9 -11 0 -23 5 -26 10 -9 14 16 12
45 -5 34 -19 50 -19 50 3 0 14 2 15 10 2 12 -18 12 -9 0 50 -5 29 -5 49 2 58
6 7 12 11 14 9 2 -2 5 -77 5 -166z m-803 108 c10 -13 7 -15 -18 -15 -28 0 -29
1 -13 18 9 10 17 17 17 16 1 -2 7 -10 14 -19z m186 6 c-4 -8 -11 -15 -16 -15
-6 0 -5 6 2 15 7 8 14 15 16 15 2 0 1 -7 -2 -15z m-204 -45 c0 -5 -2 -10 -4
-10 -3 0 -8 5 -11 10 -3 6 -1 10 4 10 6 0 11 -4 11 -10z m-177 -79 l-42 -38
42 -41 c39 -40 41 -43 24 -59 -16 -17 -20 -15 -75 40 l-57 58 59 55 c54 52 60
54 75 39 15 -15 13 -19 -26 -54z m577 65 c0 -2 -9 -6 -20 -9 -11 -3 -20 -1
-20 4 0 5 9 9 20 9 11 0 20 -2 20 -4z m673 -7 c47 -24 77 -89 41 -89 -14 0
-14 -3 -4 -15 11 -13 8 -15 -13 -15 -14 0 -29 -4 -32 -10 -9 -15 -48 -12 -81
5 -28 15 -27 15 40 15 l68 0 -6 33 c-3 17 -7 38 -8 45 -1 7 -7 11 -15 8 -7 -3
-13 1 -13 9 0 8 -5 15 -11 15 -5 0 -7 -4 -4 -10 4 -6 -7 -10 -24 -10 -17 0
-31 4 -31 10 0 5 7 6 17 3 11 -4 14 -3 9 5 -9 16 38 16 67 1z m-733 -25 c0 -3
-7 -16 -16 -29 -24 -37 -33 -89 -19 -108 7 -10 11 -28 9 -42 -1 -14 2 -23 7
-19 5 3 6 11 3 17 -4 8 -2 7 7 -1 12 -11 12 -14 -1 -22 -21 -13 -56 23 -63 65
-13 77 21 163 58 149 8 -4 15 -8 15 -10z m164 -29 c18 -37 21 -91 6 -100 -5
-3 -6 -13 -3 -22 4 -11 3 -14 -6 -9 -7 5 -10 15 -6 25 5 12 3 13 -5 5 -9 -9
-9 -17 -1 -32 9 -17 7 -24 -15 -41 -28 -22 -50 -28 -39 -11 3 6 -2 11 -12 11
-13 1 -14 2 -3 6 40 11 101 143 66 143 -9 0 -23 12 -32 26 -14 21 -15 27 -4
34 20 12 37 2 54 -35z m466 26 c0 -5 -9 -19 -20 -32 -12 -15 -19 -18 -18 -9 2
9 -3 14 -12 12 -10 -2 -7 5 9 22 22 23 41 26 41 7z m-300 -6 c0 -8 -8 -15 -18
-15 -11 0 -24 -10 -30 -22 -9 -19 -11 -20 -11 -5 -1 11 -5 15 -13 11 -7 -4 -8
-3 -4 5 4 6 12 8 18 5 7 -5 9 -2 5 8 -7 21 1 28 30 28 14 0 23 -6 23 -15z
m-708 -32 c1 -10 2 -29 2 -43 1 -14 6 -24 14 -22 6 1 12 -2 12 -8 0 -13 -11
-12 -32 3 -19 15 -33 61 -23 76 10 17 25 13 27 -6z m644 -83 c2 -27 0 -50 -5
-50 -5 0 -7 10 -3 22 3 14 2 19 -6 14 -13 -8 -17 30 -6 59 10 25 16 11 20 -45z
m324 19 c0 -4 -7 -6 -15 -3 -8 4 -15 10 -15 15 0 4 7 6 15 3 8 -4 15 -10 15
-15z m-935 -39 c-3 -5 -1 -10 5 -10 6 0 10 -8 8 -17 -1 -10 2 -25 7 -33 8 -13
7 -13 -8 -1 -9 7 -14 17 -11 22 3 5 -1 9 -9 9 -10 0 -13 7 -10 20 3 11 10 20
15 20 5 0 6 -4 3 -10z m936 -10 c6 0 7 6 3 13 -3 6 5 -1 19 -18 14 -16 23 -33
20 -37 -6 -10 -33 -10 -32 0 4 21 -2 34 -14 29 -8 -3 -13 3 -14 17 0 11 1 15
4 9 3 -7 9 -13 14 -13z m-896 -19 c3 -5 2 -12 -3 -15 -5 -3 -9 1 -9 9 0 17 3
19 12 6z m168 -20 c4 -18 0 -19 -45 -16 -54 3 -79 15 -32 15 16 0 36 5 44 10
22 14 27 12 33 -9z m914 -18 c-2 -1 -14 1 -27 4 -22 6 -22 7 -4 13 15 6 40 -8
31 -17z m-977 -19 c0 -2 -12 -4 -27 -4 -21 0 -24 3 -14 9 13 8 41 5 41 -5z
m903 -1 c-7 -2 -19 -2 -25 0 -7 3 -2 5 12 5 14 0 19 -2 13 -5z m-543 -167 c0
-34 1 -35 34 -29 27 4 36 1 50 -18 22 -31 23 -129 1 -129 -11 0 -15 13 -15 54
0 100 -61 105 -70 6 -3 -30 -11 -55 -17 -58 -10 -3 -13 22 -13 102 0 88 3 106
15 106 10 0 15 -10 15 -34z m620 19 c0 -8 -4 -15 -10 -15 -5 0 -10 7 -10 15 0
8 5 15 10 15 6 0 10 -7 10 -15z m-1076 -65 c10 -38 21 -70 24 -70 4 0 16 30
27 67 29 96 47 95 76 -4 l23 -78 24 78 c15 48 29 77 38 77 18 0 19 6 -16 -105
-20 -61 -36 -95 -45 -95 -9 0 -22 27 -36 75 -12 41 -25 73 -28 69 -3 -3 -15
-35 -26 -72 -30 -99 -45 -94 -82 28 -27 88 -29 100 -14 100 12 0 21 -19 35
-70z m286 60 c0 -5 -7 -10 -15 -10 -8 0 -15 5 -15 10 0 6 7 10 15 10 8 0 15
-4 15 -10z m438 -2 c15 -15 16 -50 1 -65 -9 -9 -8 -16 5 -28 22 -22 20 -51 -4
-75 -15 -15 -33 -20 -75 -20 l-55 0 0 100 0 100 58 0 c32 0 63 -5 70 -12z
m-368 -18 c0 -13 7 -20 20 -20 11 0 20 -4 20 -9 0 -5 -9 -11 -20 -14 -16 -4
-20 -14 -20 -52 0 -38 4 -48 20 -52 28 -7 25 -23 -5 -23 -31 0 -45 26 -45 84
0 26 -5 47 -12 50 -10 5 -10 7 0 12 6 3 12 14 12 25 0 10 7 19 15 19 8 0 15
-9 15 -20z m627 0 c3 -11 14 -20 24 -20 11 0 19 -4 19 -10 0 -5 -9 -10 -20
-10 -17 0 -20 -7 -20 -51 0 -42 3 -52 20 -56 27 -7 25 -23 -3 -23 -34 0 -47
19 -47 70 0 25 -6 52 -12 59 -10 11 -10 14 0 18 6 3 12 13 12 24 0 25 20 25
27 -1z m530 -42 c18 -18 33 -37 33 -43 0 -6 -17 -28 -38 -48 -32 -31 -41 -35
-50 -24 -9 11 -5 20 18 42 l30 29 -26 27 c-14 15 -23 32 -20 38 11 16 17 14
53 -21z m-1232 -53 c0 -46 -4 -70 -12 -72 -10 -4 -13 15 -13 72 0 57 3 76 13
73 8 -3 12 -27 12 -73z m612 53 c48 -45 14 -128 -52 -128 -43 0 -69 30 -68 78
2 66 72 95 120 50z m183 -53 c0 -43 -4 -75 -10 -75 -6 0 -10 32 -10 75 0 43 4
75 10 75 6 0 10 -32 10 -75z m85 65 c9 15 51 12 69 -6 22 -22 23 -134 1 -134
-12 0 -15 13 -15 59 0 51 -3 61 -20 66 -34 11 -50 -12 -50 -72 0 -77 -24 -67
-28 12 -4 71 2 92 22 76 10 -8 16 -9 21 -1z m220 -6 c12 -12 15 -31 13 -71
l-3 -55 -44 -4 c-47 -5 -71 8 -71 37 0 27 28 49 61 49 24 0 30 4 27 18 -3 13
-12 16 -41 15 -20 -1 -37 2 -37 6 0 24 72 27 95 5z m-1317 -356 l-1 -63 -6 50
c-4 36 -10 49 -20 47 -12 -3 -12 0 -1 12 23 29 30 17 28 -46z m297 5 c14 -31
23 -59 19 -62 -3 -3 -10 2 -15 12 -13 22 -65 23 -73 1 -4 -9 -9 -15 -12 -12
-6 6 42 118 51 118 3 0 17 -25 30 -57z m-153 9 c-16 -5 -16 -59 1 -65 7 -3 5
-6 -5 -6 -14 -1 -18 7 -18 33 0 19 -5 36 -12 38 -9 3 -8 8 2 20 13 13 16 13
30 0 11 -12 12 -16 2 -20z m-56 7 c4 -7 0 -9 -14 -5 -30 10 -37 -12 -8 -24 14
-5 26 -16 26 -24 0 -18 -29 -35 -47 -29 -21 7 -15 22 6 16 29 -7 34 13 6 25
-24 11 -32 31 -18 45 10 11 41 8 49 -4z m320 -39 c1 -37 1 -38 -3 -8 -7 61
-46 57 -56 -7 -3 -23 -4 -19 -6 15 -1 45 -1 46 32 45 31 0 32 -1 33 -45z m100
0 c1 -40 1 -41 -3 -7 -4 33 -8 38 -26 35 -16 -2 -24 -12 -28 -38 -6 -34 -6
-34 -8 10 -1 45 -1 46 32 45 31 0 32 -1 33 -45z m134 6 c-6 -20 -15 -38 -20
-41 -11 -7 -43 52 -37 68 2 7 11 -4 19 -23 l15 -35 12 38 c7 21 15 36 18 33 3
-2 0 -21 -7 -40z m100 25 c14 -28 14 -29 -22 -33 -41 -4 -42 -21 -2 -29 l29
-7 -31 -1 c-32 -1 -44 12 -44 48 0 40 51 56 70 22z m70 8 c0 -4 -6 -9 -14 -12
-8 -3 -16 -21 -19 -39 -3 -27 -4 -25 -5 12 -2 40 1 46 18 46 11 0 20 -3 20 -7z
m75 2 c3 -5 -7 -11 -22 -13 l-28 -4 28 -14 c15 -7 27 -21 27 -32 0 -14 -7 -18
-32 -17 -31 2 -31 2 -5 6 34 5 35 16 2 31 -24 11 -32 31 -18 45 10 10 41 8 48
-2z m83 -3 c7 -7 12 -27 12 -45 0 -31 -2 -33 -36 -33 -31 0 -35 3 -32 23 2 16
11 23 31 25 15 2 27 8 27 13 0 9 -14 13 -39 10 -7 -2 -10 2 -6 8 8 14 28 14
43 -1z m82 1 c0 -4 -6 -9 -14 -12 -8 -3 -16 -21 -19 -39 -3 -27 -4 -25 -5 12
-2 40 1 46 18 46 11 0 20 -3 20 -7z m70 -24 c7 17 14 25 17 18 6 -17 -39 -106
-57 -111 -12 -4 -11 -1 3 15 16 18 16 23 2 56 -21 51 -18 69 5 27 l18 -35 12
30z m-562 -15 c2 -23 -2 -40 -8 -40 -5 0 -10 18 -10 40 0 22 4 40 8 40 4 0 9
-18 10 -40z m642 -330 c0 -5 -2 -10 -4 -10 -3 0 -8 5 -11 10 -3 6 -1 10 4 10
6 0 11 -4 11 -10z m-370 -91 c0 -6 -4 -7 -10 -4 -5 3 -10 11 -10 16 0 6 5 7
10 4 6 -3 10 -11 10 -16z m-62 -138 c3 -8 -1 -12 -9 -9 -7 2 -15 10 -17 17 -3
8 1 12 9 9 7 -2 15 -10 17 -17z"/>
<path d="M2755 2819 c-11 -16 -1 -19 13 -3 7 8 8 14 3 14 -5 0 -13 -5 -16 -11z"/>
<path d="M2256 2683 c-4 -9 -3 -20 1 -24 4 -4 9 3 9 17 2 28 -1 31 -10 7z"/>
<path d="M2640 2410 c0 -30 2 -31 38 -28 32 3 37 6 37 28 0 22 -5 25 -37 28
-36 3 -38 2 -38 -28z"/>
<path d="M2640 2324 l0 -35 43 3 c35 2 43 7 45 25 3 17 -3 26 -23 33 -51 19
-65 14 -65 -26z"/>
<path d="M2826 2368 c-21 -30 -20 -51 4 -73 17 -15 24 -16 45 -7 47 21 28 102
-24 102 -5 0 -17 -10 -25 -22z"/>
<path d="M3327 2323 c-13 -12 -7 -43 7 -43 28 0 46 12 46 31 0 13 -7 19 -23
19 -13 0 -27 -3 -30 -7z"/>
<path d="M2331 2052 c-15 -28 -14 -32 9 -32 21 0 26 16 11 39 -7 11 -11 10
-20 -7z"/>
<path d="M2770 2045 c-11 -13 -9 -15 15 -15 16 0 25 5 23 12 -7 19 -24 20 -38
3z"/>
<path d="M3005 2010 c-8 -12 20 -24 35 -15 5 3 10 10 10 16 0 12 -37 12 -45
-1z"/>
<path d="M3250 1544 c0 -8 5 -12 10 -9 6 4 8 11 5 16 -9 14 -15 11 -15 -7z"/>
<path d="M3045 1510 c-3 -5 -1 -10 4 -10 6 0 11 5 11 10 0 6 -2 10 -4 10 -3 0
-8 -4 -11 -10z"/>
<path d="M3193 1485 c0 -8 4 -12 9 -9 5 3 6 10 3 15 -9 13 -12 11 -12 -6z"/>
<path d="M3570 1395 c-116 -78 -109 -60 -60 -145 l43 -75 -26 -72 -26 -73 52
26 c57 29 219 137 236 158 9 10 -5 16 -62 26 -107 19 -100 10 -92 112 3 48 5
88 3 87 -2 0 -32 -20 -68 -44z m43 -66 c-4 -16 -8 -17 -14 -7 -13 19 -11 28 5
28 9 0 12 -7 9 -21z"/>
<path d="M1611 1387 c0 -18 4 -56 8 -85 9 -63 6 -66 -102 -77 -37 -4 -67 -10
-67 -14 0 -20 283 -201 295 -189 3 2 -7 34 -21 70 l-25 66 40 74 39 75 -84 56
-84 56 1 -32z m-31 -207 c0 -5 -4 -10 -10 -10 -5 0 -10 5 -10 10 0 6 5 10 10
10 6 0 10 -4 10 -10z"/>
<path d="M1842 1353 c-10 -16 -37 -62 -60 -105 l-42 -76 38 -23 c24 -15 54
-23 87 -23 44 -1 50 -4 53 -24 4 -25 29 -38 162 -82 280 -92 614 -110 899 -49
115 25 131 32 124 58 -4 15 1 20 24 23 21 2 29 9 31 26 3 23 3 23 -22 7 -19
-13 -29 -14 -45 -5 -41 21 -40 103 2 115 12 4 30 9 39 11 13 4 21 -9 37 -61
22 -70 18 -94 -17 -114 -16 -10 -15 -10 3 -11 11 0 70 22 130 48 94 40 112 52
124 79 17 38 41 50 57 29 9 -13 14 -13 28 -3 17 12 14 20 -34 100 -54 90 -71
109 -78 89 -2 -7 -8 -10 -13 -6 -5 3 -9 0 -9 -5 0 -6 -9 -11 -21 -11 -11 0
-34 -9 -50 -21 -16 -11 -36 -18 -44 -16 -7 3 -19 -1 -25 -8 -14 -17 -34 -10
-24 8 4 7 -3 2 -14 -10 -12 -11 -35 -24 -52 -28 -16 -4 -30 -11 -30 -16 0 -5
-12 -12 -27 -15 -15 -4 -36 -18 -48 -32 -17 -20 -30 -25 -66 -24 -24 0 -54 -4
-66 -10 -17 -8 -25 -7 -39 6 -13 14 -26 16 -58 10 -22 -4 -98 -8 -168 -8
l-128 -1 0 -27 c0 -21 4 -25 19 -21 25 6 61 -30 61 -61 0 -13 -8 -34 -18 -46
-16 -19 -24 -22 -55 -16 l-37 7 0 83 0 84 -61 7 c-33 4 -63 5 -66 1 -3 -3 -13
-38 -22 -77 -9 -40 -22 -74 -28 -76 -9 -3 -10 6 -5 34 4 21 7 60 7 88 l0 50
-47 10 c-25 5 -50 13 -54 18 -13 13 -22 7 -17 -12 6 -23 -25 -38 -33 -16 -9
22 -61 19 -74 -4 -27 -52 -4 -101 49 -101 12 0 21 -4 21 -10 0 -21 -66 -10
-90 15 -19 20 -22 31 -17 66 3 22 14 51 25 62 17 19 18 24 7 35 -8 6 -22 12
-31 12 -10 0 -27 9 -39 20 -11 10 -35 20 -52 22 -22 1 -35 9 -42 25 -7 16 -16
21 -27 16 -12 -4 -15 -3 -10 5 15 24 -3 11 -22 -15z m1364 -133 c16 -53 17
-70 5 -70 -7 0 -51 101 -51 117 0 2 7 3 16 1 10 -2 22 -22 30 -48z m-948 -62
c7 -7 12 -25 12 -41 0 -29 -1 -29 -41 -23 -31 5 -40 3 -37 -6 3 -7 17 -14 31
-16 36 -4 35 -22 -1 -22 -55 0 -78 62 -40 107 13 16 60 17 76 1z m572 -2 c0
-8 8 -17 18 -21 16 -6 16 -7 -1 -20 -15 -10 -17 -21 -12 -44 4 -17 13 -31 21
-31 17 0 19 -17 2 -23 -24 -8 -37 5 -44 41 -3 21 -14 43 -23 51 -12 10 -13 15
-3 18 6 3 12 13 12 24 0 10 7 19 15 19 8 0 15 -6 15 -14z m194 -8 c19 -31 29
-85 17 -92 -5 -3 -16 13 -23 36 -11 31 -20 43 -34 43 -16 0 -19 -6 -16 -47 2
-27 -1 -48 -6 -48 -5 0 -15 21 -22 48 -17 64 -17 64 3 67 11 2 21 6 25 9 13
13 42 4 56 -16z m-117 -58 c7 -44 7 -60 -2 -60 -13 0 -38 96 -29 111 12 21 22
6 31 -51z m-469 27 c6 -5 12 -21 12 -35 0 -23 -2 -24 -40 -18 -31 5 -40 3 -40
-8 0 -17 35 -31 51 -20 7 4 10 1 7 -7 -7 -21 -36 -23 -64 -4 -21 13 -25 23
-22 53 4 54 52 73 96 39z m802 8 c0 -8 -7 -15 -15 -15 -16 0 -20 12 -8 23 11
12 23 8 23 -8z m-573 -12 c2 -6 -5 -13 -17 -16 -16 -4 -20 -13 -20 -51 0 -34
-4 -46 -15 -46 -12 0 -15 13 -15 59 0 54 2 60 23 64 29 5 40 3 44 -10z m92 3
c6 -7 14 -33 17 -58 l6 -45 -38 -6 c-70 -12 -91 47 -24 70 28 9 31 13 18 18
-10 4 -25 5 -33 2 -19 -8 -31 13 -14 24 21 13 55 11 68 -5z"/>
<path d="M2205 1140 c-3 -6 4 -14 17 -19 29 -11 35 -6 18 14 -14 17 -26 19
-35 5z"/>
<path d="M2375 1100 c-4 -6 5 -10 19 -10 14 0 26 5 26 10 0 6 -9 10 -19 10
-11 0 -23 -4 -26 -10z"/>
<path d="M2710 1050 c-11 -7 -12 -12 -3 -21 15 -15 43 -5 43 16 0 17 -18 19
-40 5z"/>
<path d="M3095 1164 c-18 -18 -18 -20 -5 -45 22 -40 65 -16 53 29 -7 27 -29
35 -48 16z"/>
<path d="M3475 1120 c-10 -11 -21 -18 -24 -15 -4 2 -13 0 -21 -5 -11 -7 -10
-14 4 -44 9 -20 21 -36 26 -36 4 0 17 27 28 60 21 62 18 74 -13 40z"/>
<path d="M1761 1078 c27 -71 34 -76 53 -40 23 44 21 50 -21 69 -21 9 -41 19
-46 21 -4 2 2 -20 14 -50z"/>
<path d="M2494 1075 c-8 -32 16 -61 41 -51 26 10 16 70 -12 74 -17 3 -24 -3
-29 -23z"/>
<path d="M1845 1030 c-3 -5 -1 -18 4 -27 9 -16 10 -14 11 10 0 28 -5 34 -15
17z"/>
</g>
</svg>
